<svg xmlns="http://www.w3.org/2000/svg" xmlns:xlink="http://www.w3.org/1999/xlink" viewBox="0 0 320 40">
  <title>
    Noordhollands Dagblad
  </title>
  <defs>
    <path id="a" d="M0 .1h25.2v21H0z"/>
    <path id="c" d="M.4 0h6.5v7.4H.4z"/>
    <path id="e" d="M0 40h319.6V.5H0z"/>
  </defs>
  <g fill="none" fill-rule="evenodd">
    <g transform="translate(0 9.6)">
      <mask id="b" fill="#fff">
        <use xlink:href="#a"/>
      </mask>
      <path fill="#231F20" d="M14.4 13.5a.6.6 0 00-.4.6l.1 2.1v1.3c0 .2.1.3.3.5l1 .6-.2 1.9a.6.6 0 00.6.6h9.4V20h-8.7l.2-1.5c0-.3-.1-.5-.3-.6l-1-.7v-1l-.1-1.6 1.2-.5.9.8a.6.6 0 00.5.1l2-.5a.6.6 0 00.4-.3l.5-1 1.3-1a.6.6 0 00.2-.4V9.6c0-.3-.1-.5-.3-.6l-2.6-1.2a.6.6 0 00-.7.1l-.7.6c1-2.6 1-3 1-3a.6.6 0 000-.2.8.8 0 000-.2l-1.6-3.6a.6.6 0 00-.5-.3h-1.1c-.2 0-.4 0-.5.2l-1 1h-.7a55 55 0 00-.4-.4V.8a.6.6 0 00-.6-.7h-1.8a.6.6 0 00-.5.4L5.5 9v.1L2.1 20H0v1.2h2.7a.6.6 0 00.5-.4L6.6 9.5l4.6-8.1h.7v.8l.2.5.8.8a.6.6 0 00.5.2h1.1a.6.6 0 00.4-.2L16 2.4h.5l1.3 3-1.1 3.1v.2c0 .2 0 .4.2.5l.8.6c.2.2.5.2.8 0l.7-.7 1.9.9v1.3l-1 .8a.6.6 0 00-.3.2l-.4 1-1.5.3-1-.8a.6.6 0 00-.5 0l-1 .3-.7.3h-.3z" mask="url(#b)"/>
    </g>
    <g transform="translate(10.9 .5)">
      <mask id="d" fill="#fff">
        <use xlink:href="#c"/>
      </mask>
      <path fill="#231F20" d="M5 0l-.3.2L1 3.6a.6.6 0 00-.2.3L.4 6.2a.6.6 0 00.3.6l.8.6a.6.6 0 00.3 0h1.8l1.1-1a.6.6 0 00.2-.3l.2-.7 1.2-1.2a.6.6 0 00.2-.3l.4-2.5a.6.6 0 00-.1-.4 141.3 141.3 0 00-.5-.7.6.6 0 00-.5-.2h-.7zm.4 3.5L4.2 4.7a.5.5 0 00-.1.2l-.2.7-.8.7H2l-.4-.2.3-1.8 3.4-3h.3l.2.2-.4 2z" mask="url(#d)"/>
    </g>
    <path fill="#EE3E33" d="M21.8 23.5l-.4.8c-.2.5-.6.8-1.2 1l-2 .5a1.9 1.9 0 01-1.6-.4v.7l.5.3c.5.4.9 1 .8 1.6a2.4 2.4 0 010 .3h7.3V5.6H18l-1 1-.1.4-.6.9-1 .7a2 2 0 01-1.4.6c.2.3.4.6.4 1a1.9 1.9 0 011.4-.7h1c.8 0 1.5.5 1.8 1.2a198.6 198.6 0 011.7 4.3 1.9 1.9 0 010 .7l-.3.6 2.5 1.2a1.9 1.9 0 011 1.7v2c0 .7-.2 1.2-.7 1.6l-1 .7zM4.4 18a2.2 2.2 0 00-.2.4l-3 9.9H0V5.6h10.2l-.2.8c-.1.8.2 1.6.8 2l.2.1h-.2c-.6 0-1.3.4-1.6 1L4.4 18"/>
    <path fill="#231F20" d="M47.8 30.8h-5.5l-6-15.7a45.2 45.2 0 01-1.5-4.3l.1 10.9v9h-3.7v-25H37l5.9 14.7 1.4 4.2C44 21.1 44 16 44 12.3V5.6h3.7v25.2zm12.8-9.1c0-4.4-1-6.5-3.3-6.5-2 0-3 2-3 6.1 0 4.4 1 6.5 3.3 6.5 2 0 3-2.1 3-6.1m4.1-.4c0 5.6-2.5 9.8-7.5 9.8S50 27.6 50 21.7c0-5.5 2.5-9.8 7.5-9.8s7.1 3.6 7.1 9.4m11.8.4c0-4.4-1-6.5-3.3-6.5-2 0-3 2-3 6.1 0 4.4 1 6.5 3.3 6.5 1.9 0 3-2.1 3-6.1m4.1-.4c0 5.6-2.5 9.8-7.5 9.8s-7-3.5-7-9.4c0-5.5 2.5-9.8 7.5-9.8s7.1 3.6 7.1 9.4m10.9-9.4l-.3 4.1c-2.7-.6-4.3 1.9-4.3 7.2v7.6h-4V12.2h3.7c0 1-.1 2.7-.3 3.9.9-2.6 2.4-4.6 5.2-4.2zm10.4 9v-5.3a7 7 0 00-2-.3c-2.3 0-3.6 1.7-3.6 6.6 0 3.7.7 5.7 2.3 5.7 2 0 3.3-3.5 3.3-6.7zm4 9.9h-3.7c0-1 0-2.3.2-3.5-1 2.5-2.6 3.8-5 3.8-3.3 0-5.3-2.9-5.3-8.8 0-6.6 2.8-10.3 8-10.3l1.8.2V3.6h4v27.2zm16.4 0h-4V18.5c0-2-.5-3.1-1.8-3.1-2 0-3.3 3.5-3.3 6.3v9h-4v-27h4v8c0 1.3-.1 2.6-.3 3.8.8-2 2.5-3.5 4.9-3.5 3.4 0 4.5 2.5 4.5 5.9v13zm12.7-9.1c0-4.4-1-6.5-3.3-6.5-2 0-3 2-3 6.1 0 4.4 1 6.5 3.3 6.5 2 0 3-2.1 3-6.1m4.2-.4c0 5.6-2.6 9.8-7.6 9.8s-7-3.5-7-9.4c0-5.5 2.5-9.8 7.5-9.8s7 3.6 7 9.4"/>
    <mask id="f" fill="#fff">
      <use xlink:href="#e"/>
    </mask>
    <path fill="#231F20" d="M141.4 30.8h4V3.6h-4zm7.3 0h4V3.6h-4zm14.9-7.7v-.8c-3.8 0-4.8 1.5-4.8 3.3 0 1.5.7 2.4 1.8 2.4 1.7 0 3-2.5 3-5m4.1 7.8H164c0-1.1 0-2.3.2-3v-.1c-.6 2-2.5 3.4-4.7 3.4-2.8 0-4.6-1.7-4.6-5.1 0-4.1 3.2-6.5 8.7-6.3v-1.4c0-2-.7-3.3-3-3.3-1.2 0-2.8.6-3.8 1.3l-1.2-3c1.6-.8 3.6-1.4 5.6-1.4 4.6 0 6.4 2.2 6.4 6v7.8l.1 5m16.3 0h-4V18.6c0-2-.5-3.1-1.8-3.1-2.1 0-3.4 3.5-3.4 6.3v9h-4V12.3h3.8c0 1-.1 2.5-.3 3.5 1-2.4 2.7-3.8 5.2-3.8 3.4 0 4.5 2.5 4.5 5.9v13zm12-9.8v-5.3a7 7 0 00-2-.3c-2.3 0-3.6 1.7-3.6 6.6 0 3.7.7 5.7 2.3 5.7 2 0 3.3-3.5 3.3-6.7zm4 9.9h-3.7c0-1 0-2.3.2-3.5-1 2.5-2.6 3.8-5 3.8-3.3 0-5.3-2.9-5.3-8.8 0-6.6 2.8-10.3 8-10.3l1.8.2V3.6h4v27.2zm12.8-5.4c0 3.5-2.7 5.7-6.7 5.7a12 12 0 01-3.6-.5l.7-3.4c.9.4 1.8.7 2.8.7 1.7 0 2.5-1 2.5-2.2 0-3.5-6-3-6-8.4 0-3.2 2-5.4 6.1-5.4 1.2 0 2.2.1 3.2.4l-.7 3.2c-.7-.3-1.6-.4-2.3-.4-1.4 0-2.2.8-2.2 1.9 0 3.2 6.2 3 6.2 8.4m18.5-7.4c0-6-1.7-9-5.9-9h-2.3v18.2l2.1.1c3.7 0 6.1-2.5 6.1-9.3m4.4-.2c0 9.3-4.4 13-11 13H219V5.5l6.4-.1c6.1 0 10.3 3 10.3 12.3m10 5.3v-.8c-3.8 0-4.8 1.5-4.8 3.3 0 1.5.7 2.4 1.8 2.4 1.7 0 3-2.5 3-5m4.1 7.8h-3.7c0-1.1 0-2.3.2-3v-.1c-.6 2-2.5 3.4-4.7 3.4-2.8 0-4.6-1.7-4.6-5.1 0-4.1 3.2-6.5 8.7-6.3v-1.4c0-2-.7-3.3-3-3.3-1.2 0-2.8.6-3.8 1.3l-1.2-3c1.6-.8 3.6-1.4 5.7-1.4 4.5 0 6.3 2.2 6.3 6v7.8l.1 5m11.6-12.2c0-2.4-.9-3.7-2.6-3.7-1.7 0-2.7 1.5-2.7 3.7 0 2.3.9 3.6 2.7 3.6 1.6 0 2.6-1.3 2.6-3.6zm1.4 15c0-1.7-1.2-2.4-2.8-2.5l-2-.2h-.8c-.8.6-1.4 1.7-1.4 3 0 1.9 1.4 3 3.3 3 2.3 0 3.7-1.4 3.7-3.3zm4-.4c0 4-3.4 6.8-8.2 6.8-4.2 0-6.8-2-6.8-5.4 0-2 1.1-3.5 2.5-4.5-1.1-.7-1.6-1.7-1.6-3s.8-2.5 1.8-3.2c-1.4-.9-2.3-2.7-2.3-5 0-3.7 2.3-7 6.7-7 1 0 1.7.2 2.6.4h5v3.2h-2c.4.8.7 1.7.7 2.8 0 4-2.3 6.8-6.6 6.8l-1.2-.2c-.4.3-.7.7-.7 1.2 0 1 .6 1.2 2.2 1.3l2.3.2c3.5.3 5.5 2 5.5 5.6zM278 21c0-3.7-.7-5.7-2.3-5.7-2 0-3.3 3.5-3.3 6.7v5.2c.6.3 1.2.4 2 .4 2.3 0 3.6-1.7 3.6-6.6zm4.3-.4c0 6.6-2.8 10.3-8.3 10.3-2.2 0-4-.3-5.6-.7V3.6h4V12c0 1.1 0 2.2-.2 3.3.8-2.1 2.4-3.5 4.7-3.5 3.4 0 5.4 3 5.4 8.9zm2.2 10h4V3.7h-4zm15-7.6v-.8c-3.9 0-4.9 1.5-4.9 3.3 0 1.5.7 2.4 1.8 2.4 1.8 0 3-2.5 3-5m4.1 7.8H300c0-1.1 0-2.3.2-3l-.1-.1c-.6 2-2.4 3.4-4.7 3.4-2.8 0-4.6-1.7-4.6-5.1 0-4.1 3.2-6.5 8.7-6.3v-1.4c0-2-.7-3.3-2.9-3.3-1.3 0-2.9.6-4 1.3l-1-3c1.5-.8 3.5-1.4 5.6-1.4 4.5 0 6.3 2.2 6.3 6v7.8l.1 5m12-9.8v-5.3a7 7 0 00-2-.3c-2.3 0-3.7 1.7-3.7 6.6 0 3.7.7 5.7 2.4 5.7 2 0 3.2-3.5 3.2-6.7zm4 9.9h-3.8l.3-3.5c-1 2.5-2.6 3.8-5 3.8-3.4 0-5.3-2.9-5.3-8.8 0-6.6 2.8-10.3 8-10.3l1.7.2V3.6h4.1v27.2z" mask="url(#f)"/>
  </g>
</svg>